<svg data-v-fde0c5aa="" xmlns="http://www.w3.org/2000/svg" viewBox="0 0 300 300" class="iconAbove"><!----><defs data-v-fde0c5aa=""><!----></defs><rect data-v-fde0c5aa="" fill="transparent" x="0" y="0" width="300px" height="300px" class="logo-background-square"></rect><defs data-v-fde0c5aa=""><!----></defs><g data-v-fde0c5aa="" id="ed215a20-5460-4cd1-ad75-0bfd8e5e5a42" fill="#000000" transform="matrix(4.993812084197998,0,0,4.993812084197998,18.35840669018277,164.29344171567922)"><path d="M3.47 6.43Q2.55 6.36 1.53 6.88Q0.52 7.40 0.64 8.65L0.64 8.65L2.21 7.95Q2.09 7.10 2.84 6.96Q3.58 6.82 4.00 7.21Q4.42 7.61 4.35 8.80L4.35 8.80Q3.90 8.50 3.28 8.42Q2.66 8.33 1.65 8.85Q0.64 9.37 0.39 10.38Q0.14 11.38 0.91 12.06Q1.69 12.73 2.41 12.70Q3.14 12.67 3.50 12.39Q3.86 12.10 4.38 11.57L4.38 11.57Q4.37 12.44 4.57 12.76L4.57 12.76L5.93 12.04Q5.58 11.63 5.65 11.02L5.65 11.02L5.65 8.16Q5.68 7.49 5.03 6.99Q4.38 6.50 3.47 6.43ZM4.40 9.32L4.39 9.68L4.39 11.18Q3.23 12.11 2.28 11.55Q1.33 10.99 1.21 10.16Q1.08 9.34 2.03 9.31Q2.97 9.28 3.77 10.00L3.77 10.00L4.40 9.32ZM8.80 3.60L6.60 4.50L6.68 4.76L7.49 4.44L7.49 12.74L8.80 12.14L8.80 3.60ZM11.72 6.51L10.45 7.03L10.45 12.73L11.77 12.12L11.77 8.05Q12.41 7.22 13.00 7.37Q13.59 7.53 13.67 8.26L13.67 8.26L14.90 7.46Q14.76 6.62 13.74 6.50Q12.73 6.38 11.71 7.73L11.71 7.73L11.72 6.51ZM18.51 6.51Q17.42 6.35 16.48 7.19Q15.54 8.03 15.28 9.15Q15.02 10.27 15.37 11.09Q15.72 11.91 16.30 12.28Q16.88 12.66 17.67 12.71Q18.46 12.76 19.23 12.08Q20.00 11.41 20.46 10.54L20.46 10.54L20.36 10.47Q19.31 11.57 18.23 11.52Q17.16 11.47 16.82 10.85L16.82 10.85L18.76 9.78Q20.21 8.81 19.90 7.75Q19.59 6.68 18.51 6.51ZM16.29 8.16Q16.53 7.66 17.14 7.40Q17.75 7.14 18.30 7.68Q18.85 8.21 18.68 8.90Q18.51 9.60 16.60 10.57L16.60 10.57Q16.30 10.04 16.17 9.35Q16.05 8.67 16.29 8.16ZM23.67 6.48Q22.97 6.57 22.60 6.79Q22.22 7.01 21.91 7.38Q21.59 7.76 21.57 8.38Q21.56 9.00 22.01 9.39Q22.46 9.77 23.73 10.21Q25.01 10.64 25.15 11.06Q25.28 11.48 24.96 11.76Q24.64 12.04 24.06 11.97Q23.48 11.90 23.05 11.61Q22.62 11.32 22.34 10.93Q22.07 10.55 22.00 10.27L22.00 10.27L20.94 11.06Q21.17 11.58 21.52 11.93Q21.87 12.28 22.40 12.50Q22.93 12.71 23.67 12.75Q24.42 12.78 25.00 12.37Q25.57 11.96 25.88 11.48Q26.19 11.01 26.17 10.52Q26.15 10.04 25.73 9.63Q25.32 9.21 23.96 8.75Q22.59 8.29 22.53 7.87Q22.48 7.44 23.02 7.29Q23.56 7.14 24.29 7.53Q25.03 7.93 24.99 8.16L24.99 8.16L25.85 7.25Q25.58 6.82 24.98 6.60Q24.37 6.39 23.67 6.48ZM30.64 12.70L31.90 12.19L31.90 6.49L30.58 7.03L30.58 11.16Q30.07 11.79 29.21 11.74Q28.35 11.69 28.27 10.73L28.27 10.73L28.27 6.51L26.97 7.17L26.97 10.96Q26.97 11.91 27.64 12.35Q28.30 12.80 28.93 12.68Q29.55 12.56 30.64 11.48L30.64 11.48L30.64 12.70ZM34.61 3.60L33.29 4.16L33.29 12.74L34.61 12.14L34.61 3.60ZM38.03 4.44L36.79 4.94L36.79 6.84L36.50 6.84L35.35 7.86L36.78 7.86L36.71 10.19Q36.72 11.87 37.59 12.42Q38.47 12.97 39.36 12.56Q40.26 12.15 40.58 11.09L40.58 11.09L40.48 10.93Q39.59 12.06 38.71 11.64Q37.84 11.22 37.99 9.78L37.99 9.78L38.04 7.85L38.88 7.85L40.95 6.79L38.02 6.79L38.03 4.44ZM42.35 10.55L41.17 11.52L42.05 12.69L43.26 11.70L42.35 10.55ZM45.77 3.55L44.51 4.14L44.51 5.58L45.77 5.06L45.77 3.55ZM45.78 6.54L44.47 7.02L44.47 12.67L45.78 12.21L45.78 6.54ZM48.39 6.38L47.08 6.89L47.08 12.73L48.45 12.15L48.45 8.05Q49.12 7.22 50.10 7.37Q51.08 7.53 51.05 8.48L51.05 8.48L51.04 12.77L52.38 12.18L52.38 8.25Q52.48 7.35 51.82 6.87Q51.16 6.40 50.19 6.56Q49.23 6.72 48.38 7.73L48.38 7.73L48.39 6.38Z"></path></g><defs data-v-fde0c5aa=""><linearGradient data-v-fde0c5aa="" gradientTransform="rotate(25)" id="f142347f-5e7b-433f-ae3e-ec812ff3fb5a" x1="0%" y1="0%" x2="100%" y2="0%"><stop data-v-fde0c5aa="" offset="0%" stop-color="#181B80" stop-opacity="1"></stop><stop data-v-fde0c5aa="" offset="100%" stop-color="#181ED9" stop-opacity="1"></stop></linearGradient></defs><g data-v-fde0c5aa="" id="69fb08ff-d4c8-4026-91fe-fdaac253a328" stroke="none" fill="url(#f142347f-5e7b-433f-ae3e-ec812ff3fb5a)" transform="matrix(1.306720495223999,0,0,1.306720495223999,84.6639065969226,52.6431599877056)"><path d="M64.226 70.58c4.544-4.09 7.713-9.571 8.765-15.736L95 53.631l-21.635-2.782c.003-.167.012-.339.012-.512 0-12.275-8.33-22.708-19.852-26.381l-2.108-9.192-5.548 7.818a30.717 30.717 0 00-1.43-.039c-13.508 0-24.881 8.942-28.053 20.983L5.057 42.068c-.128.423 0 16.526 0 16.526l11.565-.634a26.288 26.288 0 001.444 3.784L7.455 76.695l12.631.963 4.268-7.351c5.208 4.835 12.289 7.812 20.085 7.812 4.457 0 8.677-.975 12.453-2.71l10.692 9.826-3.358-14.655zM47.249 30.889l2.07 16.871-11.042-1.419 8.972-15.452zm-17.47 14.362l-8.274-1.068c2.624-9.015 10.856-15.803 20.842-16.644L29.779 45.251zm2.24 11.857l18.321-1.007 1.833 14.974.716.656a24.642 24.642 0 01-8.45 1.486c-6.908 0-13.138-2.844-17.492-7.373l5.072-8.736zm28.752-1.586l6.955-.384c-.801 3.601-2.49 6.889-4.832 9.648l-2.123-9.264zm-1.487-6.482l-4.426-19.286c7.888 3.706 13.341 11.468 13.396 20.438l-8.97-1.152z"></path></g><!----></svg>